<svg xmlns="http://www.w3.org/2000/svg" viewBox="0 0 1140 360" enable-background="new 0 0 1140 360"><path fill="#56B4D9" d="M0 0h1140v360h-1140v-360z"/><path fill="#fff" d="M163.29 114.514h-3.996l-3.266-8.637h-13.063l-3.072 8.637h-4.018l11.816-30.809h3.738l11.861 30.809zm-8.443-11.881l-4.834-13.127c-.158-.43-.315-1.117-.473-2.063h-.086c-.144.874-.308 1.562-.494 2.063l-4.791 13.127h10.678zm10.921 10.635v-4.254c.487.43 1.07.816 1.751 1.16.68.344 1.396.634 2.148.87s1.507.419 2.267.548c.759.129 1.461.193 2.105.193 2.22 0 3.878-.412 4.974-1.235s1.644-2.009 1.644-3.556c0-.831-.183-1.554-.548-2.17s-.87-1.178-1.515-1.687-1.407-.995-2.288-1.461-1.83-.956-2.847-1.472c-1.074-.544-2.077-1.096-3.008-1.654-.931-.559-1.74-1.175-2.428-1.848s-1.229-1.436-1.622-2.288c-.394-.853-.591-1.852-.591-2.997 0-1.403.308-2.625.924-3.663.616-1.038 1.425-1.895 2.428-2.567 1.002-.673 2.145-1.175 3.427-1.504 1.282-.329 2.589-.494 3.921-.494 3.036 0 5.249.365 6.639 1.096v4.061c-1.819-1.261-4.154-1.891-7.004-1.891-.788 0-1.576.082-2.363.247-.788.165-1.49.434-2.105.806-.616.372-1.117.853-1.504 1.439s-.58 1.304-.58 2.148c0 .788.146 1.468.44 2.041.293.573.727 1.096 1.3 1.568.573.473 1.271.931 2.095 1.375.823.444 1.772.931 2.847 1.461 1.103.544 2.148 1.117 3.137 1.719s1.854 1.268 2.6 1.998c.745.73 1.335 1.54 1.772 2.428.437.888.655 1.905.655 3.051 0 1.519-.297 2.804-.892 3.856-.595 1.053-1.396 1.908-2.406 2.567s-2.174 1.135-3.491 1.429c-1.318.293-2.707.44-4.168.44-.487 0-1.089-.04-1.805-.118-.716-.079-1.447-.193-2.191-.344-.745-.15-1.45-.337-2.116-.559s-1.202-.467-1.602-.739zm27.808-10.399v11.645h-3.609v-30.809h8.465c3.294 0 5.847.802 7.659 2.406 1.812 1.604 2.718 3.867 2.718 6.789s-1.006 5.313-3.019 7.176c-2.013 1.862-4.73 2.793-8.153 2.793h-4.061zm0-15.898v12.633h3.781c2.492 0 4.394-.569 5.704-1.708s1.966-2.746 1.966-4.823c0-4.067-2.406-6.102-7.219-6.102h-4.232zm21.169 28.015c-.659 0-1.221-.236-1.687-.709-.466-.473-.698-1.038-.698-1.697s.232-1.229.698-1.708c.465-.479 1.027-.72 1.687-.72.673 0 1.246.24 1.719.72s.709 1.049.709 1.708-.236 1.225-.709 1.697-1.047.709-1.719.709zm33.007-.472h-4.426l-15.855-24.557c-.401-.616-.73-1.261-.988-1.934h-.129c.114.659.172 2.069.172 4.232v22.258h-3.609v-30.808h4.684l15.426 24.17c.645 1.003 1.06 1.69 1.246 2.063h.086c-.144-.888-.215-2.399-.215-4.533v-21.7h3.609v30.809zm23.79 0h-16.328v-30.809h15.641v3.266h-12.031v10.248h11.129v3.244h-11.129v10.785h12.719v3.266zm23.533-27.543h-8.895v27.543h-3.609v-27.543h-8.873v-3.266h21.377v3.266zm36.623 26.254c-2.277 1.203-5.113 1.805-8.508 1.805-4.383 0-7.892-1.411-10.527-4.232-2.636-2.821-3.953-6.524-3.953-11.107 0-4.927 1.482-8.909 4.447-11.945s6.725-4.555 11.279-4.555c2.922 0 5.342.423 7.262 1.268v3.846c-2.206-1.231-4.641-1.848-7.305-1.848-3.538 0-6.406 1.182-8.604 3.545-2.199 2.363-3.298 5.521-3.298 9.475 0 3.753 1.027 6.742 3.083 8.97 2.055 2.228 4.751 3.341 8.089 3.341 3.094 0 5.772-.688 8.035-2.063v3.5zm14.38 1.804c-3.251 0-5.848-1.027-7.788-3.083-1.941-2.056-2.911-4.78-2.911-8.175 0-3.695 1.01-6.581 3.029-8.658s4.748-3.115 8.186-3.115c3.28 0 5.84 1.01 7.681 3.029 1.84 2.02 2.761 4.819 2.761 8.4 0 3.509-.992 6.32-2.976 8.433-1.984 2.113-4.645 3.169-7.982 3.169zm.258-20.066c-2.263 0-4.054.77-5.371 2.31-1.318 1.54-1.977 3.663-1.977 6.37 0 2.606.666 4.662 1.998 6.166s3.115 2.256 5.35 2.256c2.277 0 4.028-.737 5.253-2.213s1.837-3.573 1.837-6.295c0-2.75-.612-4.87-1.837-6.359s-2.976-2.235-5.253-2.235zm27.185 1.117c-.616-.473-1.504-.709-2.664-.709-1.504 0-2.761.709-3.771 2.127s-1.515 3.352-1.515 5.801v11.215h-3.523v-22h3.523v4.533h.086c.501-1.547 1.268-2.754 2.299-3.62s2.184-1.3 3.459-1.3c.917 0 1.618.101 2.105.301v3.652zm20.89 8.315h-15.533c.057 2.449.716 4.34 1.977 5.672 1.26 1.332 2.993 1.998 5.199 1.998 2.478 0 4.755-.816 6.832-2.449v3.309c-1.934 1.403-4.49 2.105-7.67 2.105-3.108 0-5.55-.999-7.326-2.997-1.776-1.998-2.664-4.809-2.664-8.433 0-3.423.97-6.213 2.911-8.368 1.94-2.155 4.351-3.233 7.229-3.233s5.106.931 6.682 2.793c1.575 1.862 2.363 4.447 2.363 7.756v1.847zm-3.61-2.987c-.015-2.034-.505-3.616-1.472-4.748s-2.31-1.697-4.028-1.697c-1.662 0-3.072.595-4.232 1.783s-1.876 2.743-2.148 4.662h11.88zm40.699-39.408h-1v74h1v-74zm83.592 54.095h-1.842l-7.165-24.235c-.359-1.243-.562-2.253-.606-3.032h-.09c-.045.659-.277 1.655-.696 2.987l-7.637 24.28h-1.842l-9.568-32.209h2.493l7.345 25.808c.329 1.168.562 2.119.696 2.853h.09c.09-.554.352-1.505.786-2.853l7.951-25.808h1.123l7.3 25.808c.344 1.198.576 2.149.696 2.853h.09c.075-.419.194-.898.359-1.438l7.547-27.223h2.403l-9.433 32.209zm14.445-28.795c-.449 0-.846-.165-1.19-.494-.345-.329-.517-.749-.517-1.258 0-.494.176-.895.528-1.202.352-.307.745-.46 1.179-.46.464 0 .872.15 1.224.449.352.3.528.704.528 1.213 0 .479-.172.891-.517 1.235-.344.345-.756.517-1.235.517zm-1.011 28.795v-23h2.066v23h-2.066zm24.239 0v-13.387c0-5.525-1.992-8.288-5.975-8.288-2.216 0-4.036.813-5.458 2.437-1.423 1.625-2.134 3.635-2.134 6.031v13.207h-2.066v-23h2.066v4.178h.09c1.677-3.159 4.297-4.739 7.861-4.739 2.485 0 4.387.828 5.705 2.482 1.317 1.655 1.977 4.017 1.977 7.086v13.993h-2.066zm24.485 0v-4.178h-.09c-.748 1.453-1.855 2.605-3.324 3.459-1.467.854-3.122 1.28-4.963 1.28-2.83 0-5.14-1.033-6.929-3.1-1.79-2.066-2.684-4.919-2.684-8.558 0-3.713.977-6.719 2.931-9.018 1.954-2.298 4.488-3.448 7.603-3.448 3.445 0 5.9 1.415 7.367 4.245h.09v-14.733h2.066v34.051h-2.067zm0-13.993c0-2.141-.678-3.957-2.031-5.447-1.355-1.49-3.18-2.235-5.47-2.235-2.411 0-4.402.925-5.975 2.774-1.572 1.85-2.358 4.391-2.358 7.625 0 3.175.708 5.626 2.123 7.356s3.238 2.594 5.469 2.594c2.62 0 4.649-.812 6.086-2.437 1.438-1.625 2.156-3.605 2.156-5.941v-4.289zm17.838 14.554c-3.354 0-6.009-1.104-7.962-3.313-1.955-2.208-2.932-5.08-2.932-8.614 0-3.818 1.021-6.806 3.066-8.962 2.043-2.156 4.735-3.234 8.074-3.234 3.279 0 5.87 1.071 7.771 3.212 1.901 2.142 2.853 5.106 2.853 8.895 0 3.579-.97 6.477-2.909 8.692-1.938 2.216-4.592 3.324-7.961 3.324zm.157-22.236c-2.71 0-4.87.914-6.48 2.74-1.609 1.827-2.414 4.365-2.414 7.614 0 3.01.786 5.428 2.358 7.255s3.721 2.74 6.446 2.74c2.771 0 4.904-.898 6.401-2.695s2.246-4.29 2.246-7.479c0-3.279-.745-5.795-2.235-7.547-1.489-1.752-3.596-2.628-6.322-2.628zm35.087 21.675h-1.932l-5.009-17.34c-.135-.479-.255-1.123-.359-1.932h-.112c-.03.345-.18.974-.449 1.887l-5.615 17.385h-1.932l-6.94-23h2.291l5.346 18.351c.135.479.239 1.123.314 1.932h.18c.03-.434.172-1.078.427-1.932l5.84-18.351h1.415l5.211 18.351c.12.435.225 1.078.314 1.932h.18c0-.434.127-1.078.382-1.932l5.458-18.351h2.134l-7.144 23zm9.616-1.011v-2.493c.778.674 1.722 1.206 2.83 1.595 1.108.39 2.066.584 2.875.584 3.608 0 5.413-1.475 5.413-4.425 0-1.018-.396-1.887-1.19-2.605s-2.081-1.46-3.863-2.224c-2.201-.958-3.747-1.95-4.638-2.976-.892-1.025-1.337-2.272-1.337-3.74 0-1.872.715-3.384 2.146-4.537 1.43-1.153 3.192-1.729 5.289-1.729 1.977 0 3.669.404 5.076 1.213v2.336c-1.707-1.108-3.474-1.662-5.301-1.662-1.513 0-2.732.393-3.661 1.179s-1.393 1.808-1.393 3.066c0 1.093.292 1.98.876 2.662.584.682 1.872 1.464 3.863 2.347 2.396 1.078 4.043 2.078 4.941 2.999s1.348 2.145 1.348 3.672c0 1.827-.686 3.335-2.055 4.526-1.371 1.19-3.261 1.786-5.672 1.786-2.215-.002-4.064-.526-5.547-1.574zm80.185 1.011v-32.209h2.224v30.188h12.915v2.021h-15.139zm20.802-28.795c-.449 0-.846-.165-1.19-.494-.345-.329-.517-.749-.517-1.258 0-.494.176-.895.528-1.202.352-.307.744-.46 1.179-.46.464 0 .872.15 1.224.449.353.3.528.704.528 1.213 0 .479-.172.891-.517 1.235-.345.345-.756.517-1.235.517zm-1.011 28.795v-23h2.066v23h-2.066zm24.238 0v-13.387c0-5.525-1.991-8.288-5.975-8.288-2.216 0-4.035.813-5.458 2.437-1.423 1.625-2.134 3.635-2.134 6.031v13.207h-2.066v-23h2.066v4.178h.09c1.677-3.159 4.298-4.739 7.861-4.739 2.485 0 4.388.828 5.705 2.482 1.317 1.655 1.977 4.017 1.977 7.086v13.993h-2.066zm23.34 0v-4.178h-.09c-1.603 3.16-4.073 4.739-7.412 4.739-5.436 0-8.153-3.421-8.153-10.265v-13.296h2.089v12.78c0 3.115.513 5.376 1.539 6.783 1.025 1.408 2.639 2.111 4.84 2.111 2.142 0 3.875-.786 5.199-2.358 1.326-1.572 1.988-3.668 1.988-6.289v-13.027h2.066v23h-2.066zm15.727-11.276l7.502 11.275h-2.628l-6.064-9.703h-.09l-.809 1.28c-.104.18-.232.382-.382.606l-5.076 7.816h-2.516l7.682-11.23-7.547-11.77h2.426l5.121 8.243c.659 1.063 1.056 1.722 1.19 1.977h.09l1.146-1.887 5.346-8.333h2.426l-7.817 11.726zm85.656 11.837c-4.552 0-8.18-1.512-10.883-4.537-2.702-3.024-4.054-6.955-4.054-11.792 0-5.136 1.389-9.25 4.167-12.342 2.777-3.092 6.569-4.638 11.376-4.638 4.343 0 7.857 1.486 10.546 4.458 2.688 2.973 4.031 6.87 4.031 11.691 0 5.331-1.378 9.523-4.133 12.578s-6.438 4.582-11.05 4.582zm.224-31.288c-3.743 0-6.824 1.355-9.242 4.065-2.419 2.71-3.628 6.259-3.628 10.646 0 4.433 1.146 7.962 3.437 10.59s5.346 3.942 9.164 3.942c3.983 0 7.135-1.299 9.456-3.897 2.321-2.598 3.481-6.218 3.481-10.86 0-4.552-1.135-8.104-3.402-10.658-2.27-2.551-5.357-3.828-9.266-3.828zm19.702 29.581v-2.538c2.306 1.468 4.642 2.201 7.008 2.201 2.516 0 4.425-.52 5.728-1.561s1.954-2.497 1.954-4.369c0-1.647-.438-2.961-1.313-3.942-.877-.98-2.774-2.317-5.694-4.009-3.265-1.901-5.331-3.493-6.199-4.773s-1.303-2.759-1.303-4.436c0-2.276.884-4.208 2.65-5.795 1.767-1.587 4.125-2.381 7.075-2.381 1.917 0 3.833.322 5.75.966v2.336c-1.887-.854-3.9-1.28-6.042-1.28-2.187 0-3.919.554-5.2 1.662-1.279 1.108-1.92 2.516-1.92 4.223 0 1.647.438 2.958 1.314 3.931.875.974 2.766 2.299 5.671 3.976 3.01 1.707 5.013 3.223 6.009 4.548.995 1.325 1.493 2.849 1.493 4.571 0 2.471-.857 4.485-2.571 6.042-1.715 1.558-4.137 2.336-7.267 2.336-1.108 0-2.385-.172-3.829-.517-1.446-.345-2.551-.742-3.314-1.191zm40.5 1.146l-7.412-12.286c-.464-.764-.861-1.512-1.19-2.246h-.112c-.404.824-.831 1.572-1.28 2.246l-7.547 12.286h-2.673l10.175-16.239-9.568-15.97h2.673l7.21 12.106c.374.629.764 1.348 1.168 2.156h.09l1.19-2.156 7.165-12.106h2.583l-9.658 15.925 9.883 16.284h-2.697z"/></svg>