<svg xmlns="http://www.w3.org/2000/svg" viewBox="0 0 1140 360" enable-background="new 0 0 1140 360"><path fill="#68217A" d="M0 0h1140v360h-1140v-360z"/><polygon fill="#E44D26" points="625.457,132.801 619.654,67.717 683.416,67.717 677.607,132.791 651.496,140.03"/><polygon fill="#F16529" points="651.535,134.497 672.634,128.648 677.598,73.039 651.535,73.039"/><polygon fill="#EBEBEB" points="651.535,97.178 640.973,97.178 640.243,89.004 651.535,89.004 651.535,81.021 651.508,81.021 631.519,81.021 631.71,83.163 633.672,105.16 651.535,105.16"/><polygon fill="#EBEBEB" points="651.535,117.909 651.5,117.918 642.61,115.517 642.042,109.151 637.722,109.151 634.029,109.151 635.147,121.685 651.499,126.224 651.535,126.214"/><path d="M625.587 50.03h4.057v4.008h3.711v-4.008h4.057v12.137h-4.057v-4.064h-3.711v4.064h-4.057v-12.137zm17.158 4.025h-3.571v-4.025h11.201v4.025h-3.573v8.112h-4.057v-8.112zm9.407-4.025h4.23l2.602 4.264 2.599-4.264h4.231v12.137h-4.04v-6.016l-2.791 4.315h-.07l-2.793-4.315v6.016h-3.969v-12.137zm15.682 0h4.058v8.125h5.705v4.012h-9.762v-12.137z"/><polygon fill="#fff" points="651.508,97.178 651.508,105.16 661.337,105.16 660.41,115.512 651.508,117.915 651.508,126.22 667.872,121.685 667.992,120.336 669.868,99.321 670.062,97.178 667.911,97.178"/><polygon fill="#fff" points="651.508,81.021 651.508,85.979 651.508,88.984 651.508,89.004 670.763,89.004 670.763,89.004 670.789,89.004 670.949,87.209 671.313,83.163 671.503,81.021"/><polygon points="777.75,55.803 777.75,51.656 767.862,51.656 767.862,63.777 777.75,63.777 777.75,59.631 772.008,59.631 772.008,55.803"/><polygon points="791.785,51.656 781.896,51.656 781.896,55.913 786.023,59.631 781.896,59.631 781.896,63.777 791.785,63.777 791.785,59.74 788.034,55.803 791.785,55.803"/><polygon points="806.138,51.656 796.25,51.656 796.25,55.913 800.217,59.631 796.25,59.631 796.25,63.777 806.138,63.777 806.138,59.74 802.228,55.803 806.138,55.803"/><polygon fill="#0071BC" points="760.908,134.424 755.103,69.309 818.897,69.309 813.085,134.413 786.961,141.656"/><polygon fill="#29ABE2" points="787.054,136.117 808.137,130.316 813.077,74.732 787.054,74.732"/><polygon fill="#B3B3B3" points="768.392,98.655 769.091,106.629 787.054,98.655 787.054,90.668"/><polygon fill="#E6E6E6" points="806.948,82.142 787.054,90.668 787.054,98.655 806.262,90.116"/><polygon fill="#E6E6E6" points="787.054,119.519 786.992,119.529 778.084,117.136 777.502,110.776 769.485,110.776 770.603,123.307 786.99,127.844 787.054,127.829"/><polygon fill="#fff" points="787.054,98.655 787.054,106.629 796.807,106.629 795.92,117.055 787.054,119.526 787.054,127.835 803.386,123.298 805.536,98.655"/><polygon fill="#E6E6E6" points="787.054,98.655 768.392,98.655 769.091,106.629 787.054,106.629"/><polygon fill="#E6E6E6" points="787.054,90.116 787.054,82.142 786.973,82.142 766.974,82.142 767.682,90.116"/><polygon fill="#fff" points="787.054,82.142 787.054,90.016 787.054,90.116 806.262,90.116 806.948,82.142"/><rect x="882.25" y="64.25" fill="#F0DB4F" width="70" height="70"/><path fill="#353630" d="M929.272 118.938c1.41 2.302 3.244 3.994 6.489 3.994 2.726 0 4.467-1.362 4.467-3.244 0-2.256-1.789-3.054-4.789-4.367l-1.644-.706c-4.747-2.022-7.9-4.556-7.9-9.911 0-4.933 3.759-8.689 9.633-8.689 4.182 0 7.189 1.456 9.356 5.267l-5.122 3.289c-1.128-2.022-2.344-2.819-4.233-2.819-1.927 0-3.148 1.222-3.148 2.819 0 1.973 1.222 2.772 4.044 3.994l1.644.704c5.589 2.397 8.744 4.84 8.744 10.333 0 5.922-4.652 9.167-10.9 9.167-6.109 0-10.056-2.911-11.987-6.727l5.346-3.104zm-23.236.57c1.033 1.833 1.973 3.383 4.233 3.383 2.161 0 3.524-.846 3.524-4.133v-22.367h6.578v22.456c0 6.811-3.993 9.911-9.822 9.911-5.267 0-8.317-2.726-9.868-6.008l5.355-3.242z"/><path d="M296.374 83.453c0 .708-.246 1.296-.737 1.763-.494.47-1.076.704-1.752.704-.693 0-1.277-.227-1.752-.681-.477-.452-.715-1.048-.715-1.786 0-.66.234-1.234.703-1.717.468-.484 1.057-.727 1.765-.727.706 0 1.299.239 1.775.715.475.477.713 1.054.713 1.729zm177.29 0c0 .708-.245 1.296-.737 1.763-.494.47-1.076.704-1.752.704-.693 0-1.277-.227-1.752-.681-.477-.452-.715-1.048-.715-1.786 0-.66.234-1.234.703-1.717.468-.484 1.057-.727 1.765-.727.706 0 1.299.239 1.775.715.475.477.713 1.054.713 1.729zm-184.79-1.697l-12.216 33.052h-4.241l-12.008-33.052h4.31l9.842 28.212h.092l10.072-28.212h4.149zm6.822 33.052h-3.78v-23.602h3.78v23.602zm19.173-6.316c0 2.044-.788 3.703-2.362 4.978-1.575 1.276-3.669 1.913-6.281 1.913-2.228 0-4.18-.476-5.854-1.429v-4.056c1.859 1.506 3.903 2.258 6.131 2.258 2.996 0 4.494-1.098 4.494-3.296 0-.891-.292-1.617-.876-2.178-.584-.561-1.913-1.317-3.988-2.27-2.09-.891-3.565-1.848-4.425-2.87-.861-1.022-1.291-2.378-1.291-4.068 0-1.951.784-3.58 2.351-4.886s3.557-1.959 5.97-1.959c1.859 0 3.542.369 5.048 1.106v3.803c-1.537-1.121-3.319-1.682-5.347-1.682-1.244 0-2.247.308-3.008.922-.761.614-1.141 1.406-1.141 2.374 0 1.045.292 1.848.876 2.408.584.561 1.79 1.226 3.619 1.994 2.243.953 3.818 1.951 4.725 2.996.906 1.046 1.359 2.36 1.359 3.942zm23.041 6.316h-3.78v-3.734h-.092c-1.567 2.873-3.987 4.31-7.26 4.31-5.639 0-8.459-3.357-8.459-10.072v-14.106h3.78v13.507c0 4.964 1.905 7.444 5.716 7.444 1.875 0 3.396-.68 4.564-2.04 1.168-1.36 1.752-3.13 1.752-5.313v-13.598h3.78v23.602zm22.716 0h-3.78v-3.688h-.092c-1.644 2.843-4.064 4.264-7.26 4.264-2.274 0-4.095-.618-5.462-1.855-1.368-1.237-2.051-2.9-2.051-4.99 0-4.394 2.597-6.961 7.791-7.698l7.076-.991c0-3.995-1.621-5.993-4.863-5.993-2.843 0-5.409.96-7.698 2.881v-3.872c.692-.522 1.875-1.026 3.549-1.51 1.675-.484 3.165-.726 4.472-.726 5.547 0 8.321 2.943 8.321 8.828v15.35zm-3.78-11.94l-5.716.807c-1.952.276-3.319.741-4.103 1.394-.784.653-1.176 1.71-1.176 3.17 0 1.183.422 2.132 1.268 2.846.845.714 1.928 1.071 3.25 1.071 1.875 0 3.423-.66 4.644-1.982 1.222-1.321 1.832-2.973 1.832-4.956v-2.35zm13.13 11.94h-3.78v-34.942h3.78v34.942zm29.875-8.344c0 2.781-.983 4.964-2.95 6.546-1.967 1.583-4.641 2.374-8.021 2.374-1.23 0-2.616-.204-4.16-.611-1.544-.407-2.639-.833-3.284-1.279v-4.587c.937.845 2.17 1.552 3.699 2.121s2.954.853 4.276.853c4.241 0 6.361-1.652 6.361-4.956 0-1.383-.453-2.57-1.36-3.561-.907-.991-2.766-2.294-5.578-3.907-2.719-1.536-4.625-2.996-5.716-4.379-1.091-1.383-1.637-3.065-1.637-5.048 0-2.612.976-4.736 2.927-6.373 1.951-1.637 4.472-2.455 7.56-2.455 2.965 0 5.132.392 6.5 1.176v4.333c-1.721-1.352-3.957-2.028-6.707-2.028-1.829 0-3.323.457-4.483 1.371-1.16.914-1.74 2.124-1.74 3.63 0 1.091.173 1.967.519 2.627.346.661.93 1.314 1.752 1.959.822.646 2.209 1.514 4.16 2.604 2.919 1.629 4.963 3.166 6.131 4.61 1.167 1.446 1.751 3.105 1.751 4.98zm15.151 8.113c-.907.507-2.09.761-3.549.761-4.118 0-6.177-2.32-6.177-6.961v-13.967h-4.057v-3.204h4.057v-5.762l3.78-1.221v6.983h5.946v3.204h-5.946v13.322c0 1.583.269 2.709.807 3.377.538.668 1.437 1.003 2.697 1.003.937 0 1.752-.254 2.443-.761v3.226zm22.793.231h-3.78v-3.734h-.092c-1.567 2.873-3.987 4.31-7.26 4.31-5.639 0-8.459-3.357-8.459-10.072v-14.106h3.78v13.507c0 4.964 1.905 7.444 5.716 7.444 1.874 0 3.396-.68 4.563-2.04 1.168-1.36 1.752-3.13 1.752-5.313v-13.598h3.78v23.602zm25.871 0h-3.78v-4.011h-.092c-1.752 3.058-4.456 4.587-8.113 4.587-2.981 0-5.355-1.071-7.122-3.215-1.767-2.143-2.651-5.005-2.651-8.586 0-3.902.98-7.037 2.939-9.404 1.959-2.366 4.583-3.549 7.871-3.549 3.227 0 5.585 1.276 7.076 3.826h.092v-14.59h3.78v34.942zm-3.78-10.672v-3.48c0-1.951-.65-3.572-1.948-4.863-1.299-1.291-2.878-1.936-4.737-1.936-2.274 0-4.079.841-5.416 2.524s-2.005 4.015-2.005 6.995c0 2.705.63 4.844 1.89 6.419 1.26 1.575 2.958 2.363 5.094 2.363 2.074 0 3.78-.752 5.117-2.258 1.337-1.508 2.005-3.428 2.005-5.764zm13.282 10.672h-3.78v-23.602h3.78v23.602zm27.536-11.893c0 3.749-1.064 6.765-3.192 9.047-2.128 2.282-4.982 3.423-8.563 3.423-3.488 0-6.273-1.11-8.355-3.33-2.082-2.22-3.123-5.143-3.123-8.77 0-3.903 1.068-6.987 3.204-9.254 2.135-2.266 5.078-3.4 8.828-3.4 3.503 0 6.246 1.095 8.228 3.285 1.982 2.188 2.973 5.188 2.973 8.999zm-3.872.138c0-2.965-.657-5.24-1.971-6.823-1.314-1.582-3.192-2.374-5.635-2.374-2.428 0-4.349.811-5.762 2.432-1.414 1.621-2.12 3.906-2.12 6.857 0 2.828.71 5.036 2.132 6.626 1.421 1.59 3.338 2.385 5.751 2.385 2.458 0 4.341-.784 5.647-2.351 1.304-1.566 1.958-3.817 1.958-6.752zm-266.807-32.32l-21.866 21.866-13.946-10.847-5.509 2.754v27.547l5.509 2.755 13.946-10.848 21.866 21.866 13.774-5.509v-44.075l-13.774-5.509zm-35.812 35.811v-16.528l8.265 8.265-8.265 8.263zm21.251-8.263l14.561-11.326v22.651l-14.561-11.325z" fill="#fff"/><rect x="548.5" y="61" fill="#fff" width="1" height="74"/></svg>