<svg id="bg" xmlns="http://www.w3.org/2000/svg" viewBox="0 0 1140 360"><defs><style>.cls-1{fill:#7fba00;}.cls-2{fill:#fff;}</style></defs><title>banner3b</title><path class="cls-1" d="M0,0H1140V360H0V0Z"/><path class="cls-2" d="M160.65,102.95v11.64H157V83.78h8.46q4.94,0,7.66,2.41A8.59,8.59,0,0,1,175.88,93a9.34,9.34,0,0,1-3,7.18,11.53,11.53,0,0,1-8.15,2.79h-4.06Zm0-15.9V99.68h3.78a8.45,8.45,0,0,0,5.7-1.71,6,6,0,0,0,2-4.82q0-6.1-7.22-6.1h-4.23Zm34.19,27.54h-3.52v-3.44h-0.09a7.38,7.38,0,0,1-6.77,4,7.23,7.23,0,0,1-5.15-1.74,6,6,0,0,1-1.86-4.62q0-6.17,7.26-7.18l6.6-.92q0-5.61-4.53-5.61a10.83,10.83,0,0,0-7.18,2.71V94.14a13.63,13.63,0,0,1,7.48-2.06q7.76,0,7.76,8.21v14.31Zm-3.52-11.13-5.31.73a8.62,8.62,0,0,0-3.7,1.21,3.5,3.5,0,0,0-1.25,3.08,3.36,3.36,0,0,0,1.15,2.63,4.44,4.44,0,0,0,3.06,1,5.66,5.66,0,0,0,4.33-1.84,6.56,6.56,0,0,0,1.71-4.65v-2.19Zm24.54,10.12a11.45,11.45,0,0,1-6,1.53,10,10,0,0,1-7.59-3.06,11.09,11.09,0,0,1-2.89-7.94,12.2,12.2,0,0,1,3.12-8.73,10.9,10.9,0,0,1,8.31-3.3,11.58,11.58,0,0,1,5.11,1.07v3.61A9,9,0,0,0,210.66,95a7.08,7.08,0,0,0-5.53,2.42,9.17,9.17,0,0,0-2.16,6.35,8.73,8.73,0,0,0,2,6.1,7,7,0,0,0,5.45,2.23,8.83,8.83,0,0,0,5.41-1.91v3.35Zm23,1h-4.94L224.18,104h-0.09v10.57h-3.52V82h3.52v20.65h0.09l9.24-10.08H238l-10.21,10.61Zm18.74,0H254v-3.44H254a7.38,7.38,0,0,1-6.77,4,7.23,7.23,0,0,1-5.15-1.74,6,6,0,0,1-1.86-4.62q0-6.17,7.26-7.18l6.6-.92Q254,95,249.51,95a10.83,10.83,0,0,0-7.18,2.71V94.14a13.63,13.63,0,0,1,7.48-2.06q7.76,0,7.76,8.21v14.31ZM254,103.46l-5.31.73a8.62,8.62,0,0,0-3.7,1.21,3.5,3.5,0,0,0-1.25,3.08,3.36,3.36,0,0,0,1.15,2.63,4.44,4.44,0,0,0,3.06,1,5.66,5.66,0,0,0,4.33-1.84,6.56,6.56,0,0,0,1.71-4.65v-2.19Zm28.32,9.37q0,12.12-11.6,12.12a15.58,15.58,0,0,1-7.13-1.55v-3.52a14.65,14.65,0,0,0,7.09,2.06q8.12,0,8.12-8.64V110.9h-0.09a8.9,8.9,0,0,1-14.17,1.28,11.72,11.72,0,0,1-2.5-7.87q0-5.61,2.7-8.92a9,9,0,0,1,7.38-3.31,7.17,7.17,0,0,1,6.6,3.57h0.09V92.59h3.52v20.24Zm-3.52-8.19V101.4a6.29,6.29,0,0,0-1.77-4.49A5.84,5.84,0,0,0,272.66,95a6.12,6.12,0,0,0-5.11,2.37,10.6,10.6,0,0,0-1.85,6.65,9.1,9.1,0,0,0,1.77,5.88,5.73,5.73,0,0,0,4.69,2.2A6.13,6.13,0,0,0,277,110,7.85,7.85,0,0,0,278.85,104.64Zm27.72-.17H291a8.23,8.23,0,0,0,2,5.67,6.81,6.81,0,0,0,5.2,2,10.81,10.81,0,0,0,6.83-2.45V113a12.77,12.77,0,0,1-7.67,2.11,9.3,9.3,0,0,1-7.33-3q-2.66-3-2.66-8.43a12,12,0,0,1,2.91-8.37,9.34,9.34,0,0,1,7.23-3.23,8.27,8.27,0,0,1,6.68,2.79q2.36,2.79,2.36,7.76v1.85Zm-3.61-3a7.18,7.18,0,0,0-1.47-4.75,5,5,0,0,0-4-1.7,5.69,5.69,0,0,0-4.23,1.78,8.09,8.09,0,0,0-2.15,4.66H303Zm7,12.31V110a10.42,10.42,0,0,0,6.34,2.13q4.64,0,4.64-3.09a2.69,2.69,0,0,0-.4-1.49,4,4,0,0,0-1.07-1.09,8.3,8.3,0,0,0-1.59-.85l-2-.78a25.19,25.19,0,0,1-2.57-1.17,7.74,7.74,0,0,1-1.85-1.33,5,5,0,0,1-1.12-1.69,6,6,0,0,1-.38-2.21,5.26,5.26,0,0,1,.71-2.74,6.29,6.29,0,0,1,1.89-2,8.82,8.82,0,0,1,2.7-1.21,12,12,0,0,1,3.13-.41,12.63,12.63,0,0,1,5.11,1v3.57A10,10,0,0,0,317.94,95a6.52,6.52,0,0,0-1.78.23,4.36,4.36,0,0,0-1.36.63,2.92,2.92,0,0,0-.88,1,2.57,2.57,0,0,0-.31,1.26,3,3,0,0,0,.31,1.44,3.16,3.16,0,0,0,.91,1,6.94,6.94,0,0,0,1.46.82q0.86,0.37,2,.79a27.4,27.4,0,0,1,2.62,1.15,9,9,0,0,1,2,1.33,5.21,5.21,0,0,1,1.26,1.71,5.52,5.52,0,0,1,.44,2.3,5.42,5.42,0,0,1-.72,2.84,6.17,6.17,0,0,1-1.92,2,8.81,8.81,0,0,1-2.77,1.18,13.69,13.69,0,0,1-3.29.39A12.48,12.48,0,0,1,310,113.8ZM439.09,115L422,90.27q-0.32-.47-0.63-1a6.22,6.22,0,0,1-.5-1h-0.11q0,0.39.08,1.07t0,1.72V115H418V84.19h3.16L438,108.62q0.39,0.58.7,1.08l0.57,0.93h0.11q-0.09-.71-0.13-1.59t0-2V84.19h2.88V115h-3Zm24.28,0v-3.74h-0.09a7.35,7.35,0,0,1-6.94,4.25q-7.84,0-7.84-9.58V93h2.75v12.42q0,4,1.41,5.84a5,5,0,0,0,4.31,1.89,6,6,0,0,0,2.59-.55,5.91,5.91,0,0,0,2-1.55,7.25,7.25,0,0,0,1.32-2.4,9.61,9.61,0,0,0,.47-3.09V93h2.75v22h-2.75Zm32.32-2.13a20.24,20.24,0,0,1-10.05,2.66,15,15,0,0,1-6-1.15,13,13,0,0,1-4.53-3.2,14.11,14.11,0,0,1-2.87-4.9,18.8,18.8,0,0,1-1-6.26,19.15,19.15,0,0,1,.48-4.34,17,17,0,0,1,1.42-3.91,15.06,15.06,0,0,1,2.29-3.31,14.31,14.31,0,0,1,3.1-2.56,14.9,14.9,0,0,1,3.86-1.65,17,17,0,0,1,4.53-.58,19.51,19.51,0,0,1,8.16,1.63v3.16a17.27,17.27,0,0,0-8.51-2.19,12.2,12.2,0,0,0-5.09,1,11.39,11.39,0,0,0-3.88,2.84,12.9,12.9,0,0,0-2.48,4.26,16.08,16.08,0,0,0-.9,5.34A17,17,0,0,0,475,105a11.83,11.83,0,0,0,2.27,4.18,10.36,10.36,0,0,0,3.72,2.75,12.42,12.42,0,0,0,5.11,1,13.53,13.53,0,0,0,6.79-1.63v-9.39h-7v-2.6h9.86v13.56Zm7.38-8.38a12.32,12.32,0,0,0,.54,3.63,7.69,7.69,0,0,0,1.48,2.73,6.36,6.36,0,0,0,2.35,1.71,7.89,7.89,0,0,0,3.13.59,11.19,11.19,0,0,0,7-2.6v2.71a12.81,12.81,0,0,1-7.65,2.26,10.1,10.1,0,0,1-4-.77,8.32,8.32,0,0,1-3.07-2.25,10.25,10.25,0,0,1-2-3.62,16.05,16.05,0,0,1-.69-4.9A13.51,13.51,0,0,1,501,99.4a11.29,11.29,0,0,1,2.08-3.64,9.61,9.61,0,0,1,3.16-2.41,9.17,9.17,0,0,1,4-.87,9,9,0,0,1,3.76.74,7.38,7.38,0,0,1,2.74,2.12,9.59,9.59,0,0,1,1.69,3.35,15.7,15.7,0,0,1,.58,4.43v1.38h-15.9Zm13.06-2.41a8.38,8.38,0,0,0-1.63-5.33,5.36,5.36,0,0,0-4.36-1.89,6.7,6.7,0,0,0-2.59.49,6.16,6.16,0,0,0-2.09,1.43A7.7,7.7,0,0,0,504,99.07a11.42,11.42,0,0,0-.83,3h13Zm17.07,12.65a6.82,6.82,0,0,1-3.09.71q-5.33,0-5.33-6.14V95.41h-3.87V93h3.87V87.46l2.75-.9V93h5.67v2.41h-5.67v13.47a5.51,5.51,0,0,0,.73,3.22,2.87,2.87,0,0,0,2.47,1,4.45,4.45,0,0,0,2.47-.77v2.43ZM598.39,115V102.32q0-7.45-5.41-7.46a6.24,6.24,0,0,0-2.66.57A6.39,6.39,0,0,0,588.2,97a7.41,7.41,0,0,0-1.4,2.4,8.68,8.68,0,0,0-.5,3V115h-2.75V93h2.75v3.82h0.09a8,8,0,0,1,7.37-4.34,6.65,6.65,0,0,1,5.5,2.34q1.89,2.34,1.89,6.77V115h-2.75Zm11.5-3.54v13.66h-2.75V93h2.75v4.21H610a8.74,8.74,0,0,1,3.28-3.51,9.55,9.55,0,0,1,8.4-.45,7.82,7.82,0,0,1,2.81,2.16,9.79,9.79,0,0,1,1.76,3.39,15.3,15.3,0,0,1,.61,4.49,17,17,0,0,1-.69,5,11.47,11.47,0,0,1-2,3.86,9,9,0,0,1-3.13,2.5,9.35,9.35,0,0,1-4.14.89,7.48,7.48,0,0,1-6.94-4.06h-0.09Zm0-5.61a7.84,7.84,0,0,0,.5,2.83A7.31,7.31,0,0,0,611.8,111a6.54,6.54,0,0,0,2.18,1.58,6.76,6.76,0,0,0,2.83.58,6.33,6.33,0,0,0,3-.7,6.52,6.52,0,0,0,2.27-2,9.63,9.63,0,0,0,1.44-3.12,15.34,15.34,0,0,0,.5-4.08,12,12,0,0,0-.47-3.49,7.92,7.92,0,0,0-1.34-2.65,5.82,5.82,0,0,0-2.11-1.68,6.42,6.42,0,0,0-2.76-.58,7.31,7.31,0,0,0-3.09.63,7,7,0,0,0-2.34,1.73,7.67,7.67,0,0,0-1.48,2.57,9.39,9.39,0,0,0-.52,3.13v2.92ZM659.42,115V102.07a15.75,15.75,0,0,0-.3-3.34,5.83,5.83,0,0,0-.93-2.22,3.64,3.64,0,0,0-1.61-1.25,6.34,6.34,0,0,0-2.33-.39,4.8,4.8,0,0,0-2.28.57A6,6,0,0,0,650.09,97a7.61,7.61,0,0,0-1.27,2.35,9,9,0,0,0-.46,2.92V115h-2.75V101.79q0-6.92-5.31-6.92a4.86,4.86,0,0,0-2.28.55A5.67,5.67,0,0,0,636.19,97,7.35,7.35,0,0,0,635,99.33a10,10,0,0,0-.44,3.06V115h-2.75V93h2.75v3.57h0.09a7.37,7.37,0,0,1,6.77-4.08,6.69,6.69,0,0,1,2.19.35,6.36,6.36,0,0,1,1.85,1,6.47,6.47,0,0,1,1.41,1.51,6.83,6.83,0,0,1,.89,1.93,8.83,8.83,0,0,1,3-3.57,7.46,7.46,0,0,1,4.2-1.22q7.24,0,7.24,8.94V115h-2.75ZM717,115V84.19h8.42a10.8,10.8,0,0,1,3.45.52,7.74,7.74,0,0,1,2.62,1.45,6.28,6.28,0,0,1,1.66,2.25,7,7,0,0,1,.58,2.88,8.26,8.26,0,0,1-.37,2.49,7.43,7.43,0,0,1-1.05,2.12,7,7,0,0,1-1.69,1.65,8.44,8.44,0,0,1-2.27,1.11v0.09a8.43,8.43,0,0,1,2.81.75,7.1,7.1,0,0,1,2.17,1.57,6.86,6.86,0,0,1,1.4,2.27,8,8,0,0,1,.49,2.85,8.83,8.83,0,0,1-.71,3.58,8.18,8.18,0,0,1-2,2.79,9,9,0,0,1-3,1.82,11.25,11.25,0,0,1-3.89.64H717Zm2.86-28.19V97.75h4a9.22,9.22,0,0,0,2.84-.41,6.22,6.22,0,0,0,2.17-1.18,5.19,5.19,0,0,0,1.39-1.87,6.06,6.06,0,0,0,.48-2.47q0-5-6.23-5h-4.64Zm0,13.51V112.4h5.31a7.75,7.75,0,0,0,5.25-1.6,5.7,5.7,0,0,0,1.84-4.54q0-5.93-8.06-5.93h-4.34Zm29.66,15.19a11.26,11.26,0,0,1-4.39-.82,9.38,9.38,0,0,1-3.32-2.31,10.17,10.17,0,0,1-2.11-3.58,13.88,13.88,0,0,1-.73-4.62,14.6,14.6,0,0,1,.77-4.92,10.35,10.35,0,0,1,2.2-3.68,9.41,9.41,0,0,1,3.45-2.31,12.23,12.23,0,0,1,4.51-.79,11.24,11.24,0,0,1,4.3.78,8.77,8.77,0,0,1,3.24,2.27,10.1,10.1,0,0,1,2,3.61,15.25,15.25,0,0,1,.71,4.83,14.12,14.12,0,0,1-.74,4.69,10.59,10.59,0,0,1-2.12,3.64,9.37,9.37,0,0,1-3.35,2.36A11.35,11.35,0,0,1,749.51,115.52Zm0.21-20.65a8.25,8.25,0,0,0-3.27.62,6.85,6.85,0,0,0-2.5,1.82,8.2,8.2,0,0,0-1.6,2.92,12.75,12.75,0,0,0-.56,3.92,11.58,11.58,0,0,0,.56,3.72,8.37,8.37,0,0,0,1.58,2.84,6.81,6.81,0,0,0,2.48,1.82,8.87,8.87,0,0,0,6.53,0,6.45,6.45,0,0,0,2.41-1.78,7.85,7.85,0,0,0,1.49-2.87,13.59,13.59,0,0,0,.5-3.87q0-4.45-2-6.8A7,7,0,0,0,749.72,94.87ZM785,115h-2.75l-4.66-16.16a12,12,0,0,1-.34-2h-0.09q0,0.32-.14.79a9.84,9.84,0,0,1-.31,1.12L771.56,115h-2.69l-6.66-22h2.94L770,110.06a9.67,9.67,0,0,1,.3,1.91h0.17q0-.39.14-0.88a10.47,10.47,0,0,1,.27-1.05l5.33-17h2.28l4.77,17.08a13.44,13.44,0,0,1,.32,1.91h0.17a3.17,3.17,0,0,1,.09-0.85q0.11-.48.28-1.06L788.94,93h2.77Zm11.39-10.51a12.3,12.3,0,0,0,.54,3.63,7.69,7.69,0,0,0,1.48,2.73,6.36,6.36,0,0,0,2.35,1.71,7.9,7.9,0,0,0,3.13.59,11.19,11.19,0,0,0,7-2.6v2.71a12.82,12.82,0,0,1-7.65,2.26,10.09,10.09,0,0,1-4-.77,8.32,8.32,0,0,1-3.07-2.25,10.23,10.23,0,0,1-2-3.62,16,16,0,0,1-.69-4.9,13.5,13.5,0,0,1,.75-4.58,11.26,11.26,0,0,1,2.08-3.64,9.58,9.58,0,0,1,3.16-2.41,9.17,9.17,0,0,1,4-.87,9,9,0,0,1,3.76.74A7.38,7.38,0,0,1,810,95.34a9.58,9.58,0,0,1,1.69,3.35,15.7,15.7,0,0,1,.58,4.43v1.38h-15.9Zm13.06-2.41a8.38,8.38,0,0,0-1.63-5.33,5.36,5.36,0,0,0-4.36-1.89,6.7,6.7,0,0,0-2.59.49,6.16,6.16,0,0,0-2.09,1.43,7.73,7.73,0,0,0-1.49,2.28,11.4,11.4,0,0,0-.83,3h13ZM828,95.81a4.11,4.11,0,0,0-2.49-.71,4.27,4.27,0,0,0-1.93.42,4.89,4.89,0,0,0-1.47,1.13A6.76,6.76,0,0,0,821,98.3a11.42,11.42,0,0,0-.71,1.94,14.07,14.07,0,0,0-.39,2,17.13,17.13,0,0,0-.12,2V115h-2.73V93h2.73v4.71h0.09a9.77,9.77,0,0,1,1-2.16,6.71,6.71,0,0,1,1.36-1.61,5.71,5.71,0,0,1,1.69-1,5.42,5.42,0,0,1,1.92-.34,7.48,7.48,0,0,1,1.19.09,4.59,4.59,0,0,1,1,.26v2.88Zm73.67,17.06a20.24,20.24,0,0,1-10.05,2.66,15,15,0,0,1-6-1.15,13,13,0,0,1-4.53-3.2,14.12,14.12,0,0,1-2.87-4.9,18.8,18.8,0,0,1-1-6.26,19.15,19.15,0,0,1,.48-4.34,17,17,0,0,1,1.42-3.91,15,15,0,0,1,2.29-3.31,14.32,14.32,0,0,1,3.1-2.56,14.89,14.89,0,0,1,3.86-1.65,17,17,0,0,1,4.53-.58A19.51,19.51,0,0,1,901,85.31v3.16a17.27,17.27,0,0,0-8.51-2.19,12.2,12.2,0,0,0-5.09,1,11.4,11.4,0,0,0-3.88,2.84,12.9,12.9,0,0,0-2.48,4.26,16.05,16.05,0,0,0-.9,5.34,17,17,0,0,0,.74,5.27,11.83,11.83,0,0,0,2.27,4.18,10.36,10.36,0,0,0,3.72,2.75,12.42,12.42,0,0,0,5.11,1,13.53,13.53,0,0,0,6.79-1.63v-9.39h-7v-2.6h9.86v13.56ZM922.1,115v-3.74H922a7.35,7.35,0,0,1-6.94,4.25q-7.84,0-7.84-9.58V93H910v12.42q0,4,1.41,5.84a5,5,0,0,0,4.31,1.89,6,6,0,0,0,2.59-.55,5.92,5.92,0,0,0,2-1.55,7.25,7.25,0,0,0,1.32-2.4,9.59,9.59,0,0,0,.47-3.09V93h2.75v22H922.1Zm9.22,0V82.43h2.75V115h-2.75Zm12-3.54v13.66h-2.75V93h2.75v4.21h0.09a8.75,8.75,0,0,1,3.28-3.51,9.55,9.55,0,0,1,8.4-.45,7.8,7.8,0,0,1,2.81,2.16,9.78,9.78,0,0,1,1.76,3.39,15.3,15.3,0,0,1,.61,4.49,17,17,0,0,1-.69,5,11.49,11.49,0,0,1-2,3.86,9,9,0,0,1-3.13,2.5,9.35,9.35,0,0,1-4.13.89,7.48,7.48,0,0,1-6.94-4.06H943.3Zm0-5.61a7.86,7.86,0,0,0,.5,2.83,7.34,7.34,0,0,0,1.41,2.32,6.55,6.55,0,0,0,2.18,1.58,6.76,6.76,0,0,0,2.83.58,6.33,6.33,0,0,0,3-.7,6.53,6.53,0,0,0,2.27-2,9.61,9.61,0,0,0,1.44-3.12,15.3,15.3,0,0,0,.51-4.08,12,12,0,0,0-.47-3.49,7.94,7.94,0,0,0-1.34-2.65,5.81,5.81,0,0,0-2.11-1.68,6.42,6.42,0,0,0-2.76-.58,7.31,7.31,0,0,0-3.09.63,7,7,0,0,0-2.34,1.73,7.66,7.66,0,0,0-1.48,2.57,9.39,9.39,0,0,0-.52,3.13v2.92ZM358.5,55h-1v90h1V55Z"/></svg>