<?xml version="1.0" encoding="UTF-8" standalone="no"?>
<!-- Created with Inkscape (http://www.inkscape.org/) -->

<svg
   xmlns:dc="http://purl.org/dc/elements/1.1/"
   xmlns:cc="http://creativecommons.org/ns#"
   xmlns:rdf="http://www.w3.org/1999/02/22-rdf-syntax-ns#"
   xmlns:svg="http://www.w3.org/2000/svg"
   xmlns="http://www.w3.org/2000/svg"
   xmlns:sodipodi="http://sodipodi.sourceforge.net/DTD/sodipodi-0.dtd"
   xmlns:inkscape="http://www.inkscape.org/namespaces/inkscape"
   width="12.864264mm"
   height="12.890507mm"
   viewBox="0 0 12.864264 12.890507"
   version="1.1"
   id="svg7666"
   inkscape:version="0.92.3 (2405546, 2018-03-11)"
   sodipodi:docname="pizza-slice.svg">
  <defs
     id="defs7660">
    <clipPath
       clipPathUnits="userSpaceOnUse"
       id="clipPath4885">
      <path
         d="M -3.9725e-5,540 H 960 V 1.2207e-4 L -4.3448e-5,6.1035e-5"
         id="path4883"
         inkscape:connector-curvature="0"
         style="clip-rule:evenodd" />
    </clipPath>
    <clipPath
       clipPathUnits="userSpaceOnUse"
       id="clipPath4875">
      <path
         d="M -1.9395e-5,540 H 960 V 1.2207e-4 L -2.3118e-5,6.1035e-5"
         id="path4873"
         inkscape:connector-curvature="0"
         style="clip-rule:evenodd" />
    </clipPath>
  </defs>
  <sodipodi:namedview
     id="base"
     pagecolor="#ffffff"
     bordercolor="#666666"
     borderopacity="1.0"
     inkscape:pageopacity="0.0"
     inkscape:pageshadow="2"
     inkscape:zoom="0.35"
     inkscape:cx="-538.54671"
     inkscape:cy="-372.78284"
     inkscape:document-units="mm"
     inkscape:current-layer="layer1"
     showgrid="false"
     inkscape:window-width="3018"
     inkscape:window-height="1744"
     inkscape:window-x="665"
     inkscape:window-y="3070"
     inkscape:window-maximized="1" />
  <metadata
     id="metadata7663">
    <rdf:RDF>
      <cc:Work
         rdf:about="">
        <dc:format>image/svg+xml</dc:format>
        <dc:type
           rdf:resource="http://purl.org/dc/dcmitype/StillImage" />
        <dc:title></dc:title>
      </cc:Work>
    </rdf:RDF>
  </metadata>
  <g
     inkscape:label="Layer 1"
     inkscape:groupmode="layer"
     id="layer1"
     transform="translate(-26.073816,-37.310701)">
    <g
       id="g4869"
       transform="matrix(0.35277777,0,0,-0.35277777,-82.464891,223.70045)"
       style="stroke:#ffffff;stroke-opacity:1">
      <g
         id="g4871"
         clip-path="url(#clipPath4875)"
         style="stroke:#ffffff;stroke-opacity:1">
        <path
           d="m 331.92,516.06 c 0,0 -0.03,0.03 0,0 -0.03,0.03 -0.03,0.03 -0.03,0.03 -3.14,3.13 -6.77,5.57 -10.84,7.23 0,0 0,0 0,0 l -12.47,-30.6 30.61,12.47 c 0,0 0,0 0,0 -1.7,4.1 -4.13,7.73 -7.27,10.87 z m -10.3,-1.7 c -1.13,1.13 -1.13,2.93 -0.03,4.03 1.1,1.1 2.9,1.1 4.03,-0.03 1.13,-1.14 1.13,-2.94 0.03,-4.04 -1.1,-1.1 -2.9,-1.1 -4.03,0.04 z m -8.27,-14.94 2.3,5.63 c 0.5,-0.16 0.97,-0.36 1.37,-0.76 1.2,-1.2 1.2,-3.14 0,-4.34 -1,-1 -2.5,-1.16 -3.67,-0.53 z m 12.14,5.07 c -1.14,1.13 -1.14,2.93 -0.04,4.03 1.1,1.1 2.9,1.1 4.04,-0.03 1.13,-1.14 1.13,-2.94 0.03,-4.04 -1.1,-1.1 -2.9,-1.1 -4.03,0.04 z"
           style="fill:none;stroke:#ffffff;stroke-width:1;stroke-linecap:butt;stroke-linejoin:miter;stroke-miterlimit:10;stroke-dasharray:none;stroke-opacity:1"
           id="path4877"
           inkscape:connector-curvature="0" />
      </g>
    </g>
    <g
       id="g4879"
       transform="matrix(0.35277777,0,0,-0.35277777,-82.464891,223.70045)"
       style="stroke:#ffffff;stroke-opacity:1">
      <g
         id="g4881"
         clip-path="url(#clipPath4885)"
         style="stroke:#ffffff;stroke-opacity:1">
        <path
           d="m 343.52,506.99 c -1.93,4.67 -4.73,8.87 -8.3,12.43 -3.6,3.6 -7.77,6.37 -12.37,8.31 -0.73,0.33 -1.56,-0.04 -1.83,-0.77 -0.27,-0.73 0.07,-1.53 0.8,-1.87 4.23,-1.76 8.07,-4.33 11.4,-7.67 3.34,-3.33 5.9,-7.16 7.7,-11.5 0.07,-0.2 0.2,-0.33 0.34,-0.47 0.4,-0.4 1,-0.53 1.53,-0.33 0.7,0.3 1.03,1.17 0.73,1.87 z"
           style="fill:none;stroke:#ffffff;stroke-width:1;stroke-linecap:butt;stroke-linejoin:miter;stroke-miterlimit:10;stroke-dasharray:none;stroke-opacity:1"
           id="path4887"
           inkscape:connector-curvature="0" />
      </g>
    </g>
  </g>
</svg>
