<?xml version="1.0" encoding="UTF-8" standalone="no"?>
<!-- Created with Inkscape (http://www.inkscape.org/) -->

<svg
   xmlns:dc="http://purl.org/dc/elements/1.1/"
   xmlns:cc="http://creativecommons.org/ns#"
   xmlns:rdf="http://www.w3.org/1999/02/22-rdf-syntax-ns#"
   xmlns:svg="http://www.w3.org/2000/svg"
   xmlns="http://www.w3.org/2000/svg"
   xmlns:sodipodi="http://sodipodi.sourceforge.net/DTD/sodipodi-0.dtd"
   xmlns:inkscape="http://www.inkscape.org/namespaces/inkscape"
   width="100"
   height="100"
   id="svg2"
   version="1.1"
   inkscape:version="0.48.2 r9819"
   sodipodi:docname="New document 1">
  <defs
     id="defs4" />
  <sodipodi:namedview
     id="base"
     pagecolor="#ffffff"
     bordercolor="#666666"
     borderopacity="1.0"
     inkscape:pageopacity="0.0"
     inkscape:pageshadow="2"
     inkscape:zoom="5.6"
     inkscape:cx="56.013691"
     inkscape:cy="69.593676"
     inkscape:document-units="px"
     inkscape:current-layer="layer1"
     showgrid="false"
     fit-margin-top="0"
     fit-margin-left="0"
     fit-margin-right="0"
     fit-margin-bottom="0"
     inkscape:window-width="1920"
     inkscape:window-height="1003"
     inkscape:window-x="-9"
     inkscape:window-y="-9"
     inkscape:window-maximized="1" />
  <metadata
     id="metadata7">
    <rdf:RDF>
      <cc:Work
         rdf:about="">
        <dc:format>image/svg+xml</dc:format>
        <dc:type
           rdf:resource="http://purl.org/dc/dcmitype/StillImage" />
        <dc:title></dc:title>
      </cc:Work>
    </rdf:RDF>
  </metadata>
  <g
     inkscape:label="Layer 1"
     inkscape:groupmode="layer"
     id="layer1"
     transform="translate(-277.5,-381.16879)">
    <g
       id="g3797"
       inkscape:export-filename="C:\Users\Jon\SkyDrive\Projects\Git\MvcMusicStore\MvcMusicStore\Content\Images\placeholder.png"
       inkscape:export-xdpi="90"
       inkscape:export-ydpi="90">
      <rect
         y="381.16879"
         x="277.5"
         height="100"
         width="100"
         id="rect3017"
         style="fill:#ffffff;fill-opacity:1" />
      <g
         transform="translate(2.0535545,-3.2469826)"
         id="g3787">
        <rect
           style="fill:#edecb3;fill-opacity:1;fill-rule:evenodd;stroke:#000000;stroke-width:1.15819502px;stroke-linecap:butt;stroke-linejoin:miter;stroke-opacity:1"
           id="rect2998"
           width="78.591805"
           height="78.591805"
           x="286.15054"
           y="395.11987" />
        <g
           style="font-size:10.29434204px;font-style:normal;font-variant:normal;font-weight:normal;font-stretch:normal;line-height:125%;letter-spacing:0px;word-spacing:0px;fill:#90905a;fill-opacity:1;stroke:none;font-family:Segoe UI;-inkscape-font-specification:Segoe UI"
           id="text3000">
          <path
             inkscape:connector-curvature="0"
             d="m 290.05246,405.88284 0,-0.99526 c 0.11393,0.10054 0.25048,0.19101 0.40966,0.27144 0.15917,0.0804 0.32672,0.14828 0.50265,0.20357 0.17593,0.0553 0.35269,0.098 0.5303,0.12818 0.1776,0.0302 0.3418,0.0452 0.4926,0.0452 0.51941,0 0.90729,-0.0963 1.16364,-0.28903 0.25635,-0.19268 0.38453,-0.46998 0.38453,-0.83189 0,-0.19436 -0.0427,-0.36358 -0.12817,-0.50768 -0.0855,-0.14409 -0.20358,-0.27562 -0.35437,-0.39458 -0.1508,-0.11896 -0.32925,-0.2329 -0.53533,-0.34181 -0.20609,-0.1089 -0.4281,-0.22367 -0.66602,-0.34431 -0.25132,-0.12734 -0.4859,-0.25635 -0.70371,-0.38705 -0.21782,-0.13068 -0.40715,-0.27478 -0.568,-0.43228 -0.16085,-0.15749 -0.28735,-0.33593 -0.3795,-0.53533 -0.0922,-0.19938 -0.13823,-0.43311 -0.13823,-0.7012 0,-0.32839 0.072,-0.61407 0.21614,-0.85702 0.14409,-0.24294 0.33342,-0.44317 0.568,-0.60067 0.23457,-0.15749 0.50181,-0.27478 0.80173,-0.35186 0.29991,-0.0771 0.60569,-0.1156 0.91734,-0.11561 0.71042,1e-5 1.22815,0.0855 1.5532,0.25635 l 0,0.95002 c -0.42558,-0.29488 -0.9718,-0.44233 -1.63865,-0.44234 -0.18431,10e-6 -0.36861,0.0193 -0.55292,0.0578 -0.18431,0.0385 -0.34851,0.10137 -0.4926,0.18849 -0.14409,0.0871 -0.26138,0.1994 -0.35186,0.33678 -0.0905,0.1374 -0.13571,0.30495 -0.13571,0.50266 0,0.18431 0.0343,0.34348 0.10304,0.47752 0.0687,0.13404 0.17006,0.25635 0.30411,0.36693 0.13404,0.11059 0.2974,0.21782 0.49008,0.3217 0.19269,0.10389 0.41469,0.21782 0.66602,0.34181 0.25803,0.12734 0.50265,0.26138 0.73387,0.40212 0.23122,0.14074 0.43396,0.29657 0.60821,0.46747 0.17425,0.1709 0.31248,0.36023 0.41469,0.56799 0.10221,0.20777 0.15331,0.44569 0.15331,0.71377 0,0.35521 -0.0695,0.65597 -0.2086,0.90226 -0.13907,0.24631 -0.32673,0.44653 -0.56297,0.60068 -0.23625,0.15414 -0.50852,0.26556 -0.81681,0.33426 -0.3083,0.0687 -0.63335,0.10304 -0.97515,0.10304 -0.11394,0 -0.25468,-0.009 -0.42223,-0.0276 -0.16755,-0.0184 -0.33845,-0.0452 -0.5127,-0.0804 -0.17426,-0.0352 -0.3393,-0.0788 -0.49512,-0.13069 -0.15582,-0.0519 -0.28065,-0.10974 -0.37447,-0.17341 z"
             id="path3005" />
          <path
             inkscape:connector-curvature="0"
             d="m 299.43197,406.17438 -0.82435,0 0,-0.80425 -0.0201,0 c -0.35856,0.61659 -0.88635,0.92488 -1.58336,0.92488 -0.51271,0 -0.91399,-0.13571 -1.20385,-0.40715 -0.28987,-0.27143 -0.4348,-0.63166 -0.4348,-1.0807 0,-0.96174 0.56632,-1.52136 1.69897,-1.67886 l 1.54315,-0.21614 c -10e-6,-0.87462 -0.35354,-1.31192 -1.0606,-1.31193 -0.61994,10e-6 -1.17956,0.21112 -1.67886,0.63334 l 0,-0.84445 c 0.506,-0.3217 1.08908,-0.48255 1.74923,-0.48255 1.20971,0 1.81457,0.64005 1.81458,1.92014 z m -0.82435,-2.60375 -1.24156,0.1709 c -0.38202,0.0536 -0.6702,0.14829 -0.86456,0.284 -0.19436,0.13572 -0.29154,0.37616 -0.29154,0.72131 0,0.25133 0.0896,0.45658 0.26892,0.61575 0.17928,0.15918 0.41804,0.23876 0.71628,0.23876 0.40882,0 0.74644,-0.14325 1.01285,-0.42977 0.2664,-0.28651 0.3996,-0.64926 0.39961,-1.08824 z"
             id="path3007" />
          <path
             inkscape:connector-curvature="0"
             d="m 308.3038,406.17438 -0.82435,0 0,-2.9556 c -10e-6,-0.56968 -0.088,-0.98185 -0.26389,-1.23653 -0.17594,-0.25468 -0.47167,-0.38201 -0.88719,-0.38202 -0.35186,10e-6 -0.65094,0.16085 -0.89723,0.48255 -0.24631,0.3217 -0.36946,0.70707 -0.36945,1.1561 l 0,2.9355 -0.82436,0 0,-3.05614 c 0,-1.012 -0.39039,-1.518 -1.17118,-1.51801 -0.36191,10e-6 -0.66015,0.15164 -0.89472,0.4549 -0.23457,0.30327 -0.35186,0.69786 -0.35186,1.18375 l 0,2.9355 -0.82435,0 0,-5.14717 0.82435,0 0,0.81429 0.0201,0 c 0.36526,-0.62328 0.89807,-0.93493 1.59844,-0.93493 0.35185,0 0.65847,0.098 0.91985,0.29405 0.26138,0.19604 0.44066,0.45323 0.53784,0.77157 0.38201,-0.71041 0.95169,-1.06562 1.70902,-1.06562 1.13264,0 1.69896,0.69869 1.69897,2.09606 z"
             id="path3009" />
          <path
             inkscape:connector-curvature="0"
             d="m 310.70648,405.43045 -0.0201,0 0,3.11143 -0.82435,0 0,-7.51467 0.82435,0 0,0.90477 0.0201,0 c 0.40548,-0.6836 0.99861,-1.02541 1.7794,-1.02541 0.6635,0 1.18123,0.23039 1.5532,0.69115 0.37195,0.46077 0.55794,1.07819 0.55794,1.85228 0,0.86121 -0.20944,1.55068 -0.62831,2.06841 -0.41889,0.51774 -0.99191,0.7766 -1.71908,0.7766 -0.66686,0 -1.18124,-0.28818 -1.54315,-0.86456 z m -0.0201,-2.07596 0,0.7188 c 0,0.42558 0.13823,0.78665 0.41469,1.08321 0.27645,0.29657 0.62747,0.44485 1.05306,0.44485 0.4993,0 0.89053,-0.191 1.17369,-0.57302 0.28316,-0.38202 0.42474,-0.91315 0.42474,-1.59341 0,-0.57303 -0.13237,-1.02206 -0.39709,-1.34711 -0.26474,-0.32505 -0.6233,-0.48757 -1.07568,-0.48758 -0.4792,10e-6 -0.86457,0.16672 -1.1561,0.50014 -0.29154,0.33343 -0.43731,0.75147 -0.43731,1.25412 z"
             id="path3011" />
          <path
             inkscape:connector-curvature="0"
             d="m 316.73833,406.17438 -0.82436,0 0,-7.62023 0.82436,0 z"
             id="path3013" />
          <path
             inkscape:connector-curvature="0"
             d="m 322.54397,403.80688 -3.63418,0 c 0.0134,0.57303 0.16755,1.01536 0.46244,1.327 0.29489,0.31165 0.70036,0.46747 1.21642,0.46747 0.57972,0 1.11254,-0.191 1.59844,-0.57302 l 0,0.77408 c -0.45239,0.3284 -1.05055,0.4926 -1.79448,0.4926 -0.72717,0 -1.29852,-0.23373 -1.71404,-0.7012 -0.41553,-0.46746 -0.62329,-1.1251 -0.62329,-1.97291 0,-0.80089 0.22703,-1.4535 0.68109,-1.95784 0.45406,-0.50432 1.01787,-0.75649 1.69143,-0.75649 0.67355,0 1.19464,0.21782 1.56325,0.65345 0.36861,0.43564 0.55292,1.0405 0.55292,1.81458 z m -0.84446,-0.69869 c -0.003,-0.47584 -0.11812,-0.84613 -0.34431,-1.11086 -0.2262,-0.26473 -0.54036,-0.39709 -0.94248,-0.3971 -0.38872,10e-6 -0.7188,0.13907 -0.99023,0.4172 -0.27143,0.27814 -0.43898,0.64173 -0.50265,1.09076 z"
             id="path3015" />
        </g>
      </g>
    </g>
  </g>
</svg>
